ply
format ascii 1.0
element vertex 5
property float x
property float y
property float z
property float nx
property float ny
property float nz
property uchar diffuse_red
property uchar diffuse_green
property uchar diffuse_blue
end_header
-70.5133 163.6082 380.4889 -0.065 0.324 -0.944 30 118 78
-68.7939 162.3445 383.5759 -0.164 0.877 -0.452 18 110 69
46.4826 129.3206 404.0129 -0.204 0.792 -0.575 157 167 143
-69.0106 162.6974 396.6573 -0.456 -0.014 -0.890 40 130 92
-35.3646 188.1981 357.5031 -0.885 -0.342 -0.315 18 98 59
