ply
format ascii 1.0
element vertex 34
property float x
property float y
property float z
property float nx
property float ny
property float nz
property uchar diffuse_red
property uchar diffuse_green
property uchar diffuse_blue
end_header
-91.4238 99.6942 291.4557 0.657 0.666 -0.353 102 111 82
55.2631 71.6944 307.5487 -0.152 -0.973 -0.176 188 187 185
55.7028 71.6642 306.9612 -0.196 -0.966 -0.169 190 186 185
56.9238 71.3527 308.0237 -0.156 -0.972 -0.177 188 184 183
-97.7270 94.6788 375.1127 -0.930 -0.216 -0.298 166 168 155
63.6406 70.8576 308.2361 -0.166 -0.957 -0.237 184 180 177
64.3385 70.7343 308.1941 -0.038 -0.972 -0.232 187 183 180
-97.2622 96.3920 363.9619 -0.747 -0.608 -0.267 170 176 164
65.0596 70.5447 318.2610 -0.009 -0.964 -0.267 189 185 184
-98.2955 96.5891 375.2808 -0.758 -0.582 -0.295 215 220 213
-97.1021 97.2587 363.7918 -0.769 -0.591 -0.245 159 169 158
-96.2598 97.0586 364.4030 -0.756 -0.597 -0.267 108 122 107
-95.3034 97.5684 367.0850 -0.245 -0.943 -0.225 72 100 78
-94.4939 97.2061 369.9668 -0.290 -0.931 -0.223 78 112 85
-97.4658 103.5214 349.3851 -0.029 -0.957 -0.290 204 219 212
-97.8312 105.0329 339.4274 -0.335 -0.906 -0.259 209 218 215
-95.5481 104.8005 350.5754 -0.092 -0.972 -0.216 79 113 97
-94.7284 104.6334 350.8904 -0.534 -0.803 -0.263 52 97 76
-79.5223 104.7046 345.3014 0.296 -0.947 -0.123 55 91 63
-91.2734 108.8775 320.1897 -0.804 -0.533 -0.262 39 119 82
-79.5003 105.7952 339.9294 0.286 -0.951 -0.120 51 90 63
-91.8908 109.7650 320.2323 -0.668 -0.691 -0.275 53 127 92
-78.4434 106.2416 344.0604 0.412 -0.904 -0.116 59 89 65
-80.3432 108.2475 324.7716 0.391 -0.914 -0.108 37 91 59
-78.4312 107.2917 338.9917 0.412 -0.904 -0.116 54 86 63
-76.6499 106.7190 344.8079 -0.529 -0.813 -0.245 44 52 37
-78.4126 108.3002 334.3150 0.412 -0.904 -0.118 53 88 64
-78.3984 109.2869 329.6282 0.412 -0.904 -0.118 51 89 64
-78.3846 110.2462 325.0717 0.412 -0.904 -0.118 49 87 62
-79.3398 112.5354 307.4645 0.444 -0.887 -0.127 44 97 67
-79.3543 113.4362 302.0441 0.392 -0.912 -0.120 41 96 64
-79.1383 120.2905 252.1905 0.083 -0.991 -0.105 36 91 59
-66.4652 136.4216 354.3742 0.954 0.215 -0.209 38 88 59
-70.8065 149.7222 358.6315 0.179 0.649 -0.739 22 115 71
