ply
format ascii 1.0
element vertex 9
property float x
property float y
property float z
property float nx
property float ny
property float nz
property uchar diffuse_red
property uchar diffuse_green
property uchar diffuse_blue
end_header
-38.6287 -86.4298 138.4694 -0.813 0.427 -0.395 29 93 76
-38.7960 -84.4808 138.9227 -0.387 -0.095 -0.917 72 112 114
-44.2948 -88.0081 154.0345 0.417 -0.746 -0.519 102 138 138
-35.9425 -82.3126 132.0931 -0.830 0.249 -0.498 112 134 145
-36.1062 -82.0842 132.4661 -0.826 0.262 -0.499 133 151 161
-58.2037 -90.0615 173.8996 -0.821 -0.285 -0.495 78 117 96
-55.5496 -87.6994 170.3544 -0.771 -0.438 -0.462 206 219 210
17.6177 -11.0280 188.4653 0.950 0.064 -0.306 208 200 179
17.5054 -10.6576 188.0944 0.934 -0.129 -0.332 206 198 177
