ply
format ascii 1.0
element vertex 20
property float x
property float y
property float z
property float nx
property float ny
property float nz
property uchar diffuse_red
property uchar diffuse_green
property uchar diffuse_blue
end_header
50.9690 82.3017 281.1403 0.890 0.194 -0.414 196 195 193
56.2889 81.1107 288.7944 0.925 0.176 -0.336 197 196 192
26.8264 80.6899 325.7378 0.968 -0.041 -0.247 13 168 124
53.3312 83.1059 285.1600 0.948 0.211 -0.236 197 196 192
56.6775 81.9066 287.8960 0.738 0.320 -0.594 198 197 193
56.9546 82.7617 286.7806 0.488 -0.118 -0.865 190 191 186
57.8168 82.5157 287.1613 0.507 -0.045 -0.861 191 192 187
106.6794 62.6051 379.4977 -0.079 0.782 -0.618 180 179 175
107.5733 62.4250 379.4959 -0.100 0.776 -0.622 181 180 176
27.5875 88.6456 329.5063 0.530 -0.769 -0.357 53 230 178
108.6738 63.8234 380.9028 -0.215 0.838 -0.502 188 187 183
111.2522 63.7592 383.8246 -0.199 0.717 -0.668 195 194 190
29.3819 89.1990 333.8405 0.601 -0.703 -0.379 56 238 187
30.3666 91.5790 332.9517 0.761 0.018 -0.648 61 253 204
32.6965 90.6693 352.8232 0.662 0.723 -0.199 14 89 66
33.5424 91.0711 354.8542 0.664 0.720 -0.200 11 89 65
35.6149 90.7165 360.5952 0.664 0.717 -0.210 7 90 64
-73.5443 156.7972 323.1120 -0.225 0.667 -0.710 36 122 85
-72.7557 156.6231 323.8919 -0.391 0.601 -0.697 30 118 78
-56.3749 175.0062 344.4661 -0.899 -0.139 -0.415 37 110 83
