ply
format ascii 1.0
element vertex 17
property float x
property float y
property float z
property float nx
property float ny
property float nz
property uchar diffuse_red
property uchar diffuse_green
property uchar diffuse_blue
end_header
61.5628 -12.4144 162.1710 0.203 0.856 -0.476 175 159 134
60.3244 -11.7042 160.6443 0.567 0.731 -0.379 167 150 124
61.4537 -11.9735 161.8716 0.464 0.778 -0.423 172 155 129
60.2603 -7.0184 152.3056 0.631 -0.693 -0.348 162 147 116
61.2192 -7.0509 153.9866 0.702 -0.627 -0.336 159 144 113
38.9690 -12.0922 176.6371 -0.443 -0.138 -0.886 141 129 103
39.0172 -7.7057 179.0445 -0.414 0.759 -0.503 115 104 98
39.2751 -7.5404 178.3393 -0.208 0.782 -0.588 112 101 95
40.0273 -7.4574 180.0695 0.018 0.893 -0.449 109 98 94
40.8249 -7.4076 180.0285 0.079 0.890 -0.449 108 97 93
63.6074 -2.2308 161.2357 0.877 0.227 -0.423 143 131 109
39.8448 -10.4799 196.3502 -0.669 -0.625 -0.402 112 103 94
72.9198 18.2374 199.8202 0.012 0.773 -0.634 45 23 25
59.1218 28.0891 159.4945 0.178 0.957 -0.230 54 35 39
67.4237 30.8768 175.5711 -0.411 -0.838 -0.357 44 28 31
-20.5542 48.1232 196.6879 0.688 0.001 -0.725 44 25 29
-20.5380 48.5894 196.4731 0.688 -0.015 -0.726 44 25 29
