ply
format ascii 1.0
element vertex 38
property float x
property float y
property float z
property float nx
property float ny
property float nz
property uchar diffuse_red
property uchar diffuse_green
property uchar diffuse_blue
end_header
54.4878 -15.3867 169.9912 0.824 -0.215 -0.524 136 119 103
61.3303 -14.5990 173.9350 -0.114 -0.059 -0.992 140 128 104
61.0158 -14.2371 174.1212 -0.548 -0.167 -0.819 139 126 107
37.0477 -0.5072 157.6634 0.068 -0.982 -0.177 97 76 71
72.6683 13.2557 186.4826 0.345 -0.572 -0.744 41 25 28
70.7381 13.4857 184.5728 -0.261 -0.662 -0.703 39 20 24
64.0200 19.0131 164.8087 0.736 -0.510 -0.445 45 29 30
63.7626 19.3073 164.1704 0.727 -0.517 -0.452 45 29 30
72.5017 34.8383 194.6335 0.053 0.762 -0.645 36 17 21
32.0688 16.4304 96.5599 -0.630 -0.752 -0.193 42 18 18
49.8463 30.2107 153.7389 -0.131 -0.505 -0.853 48 26 28
-25.8979 39.8429 192.1221 0.317 -0.912 -0.262 78 46 49
-25.7190 39.9973 190.6465 0.298 -0.916 -0.269 79 49 51
-25.5914 40.2302 189.5553 0.322 -0.911 -0.258 77 47 49
38.3537 28.4238 134.9293 0.659 -0.748 -0.076 56 37 33
52.2213 41.1157 189.1978 0.615 -0.782 -0.101 37 22 19
53.0082 41.4199 190.5194 0.615 -0.782 -0.101 49 31 27
36.6778 27.1878 128.1227 0.425 -0.900 -0.100 52 31 28
56.3805 31.3751 146.0642 0.847 -0.492 -0.202 39 20 24
59.0497 38.1808 165.8621 0.892 -0.441 -0.099 39 27 29
57.3517 37.7886 161.1661 0.904 -0.414 -0.105 44 32 32
21.9606 50.0627 196.1462 0.948 -0.225 -0.224 52 28 24
-31.1369 48.8032 186.1889 -0.667 -0.709 -0.230 231 217 214
-29.5615 49.3860 184.9201 0.051 -0.984 -0.172 186 168 166
-24.6227 51.6244 189.5804 -0.667 -0.730 -0.152 133 108 104
-14.6839 45.4357 162.0823 -0.487 -0.834 -0.260 55 33 36
-16.2473 47.2561 165.4592 -0.480 -0.835 -0.271 35 16 20
-14.5335 45.6421 160.0645 -0.517 -0.814 -0.266 57 37 38
-14.4733 47.8494 163.3759 0.213 -0.924 -0.317 57 37 36
-16.6007 48.5399 164.2551 -0.600 -0.762 -0.243 29 15 15
-17.5226 42.2595 141.5159 -0.831 -0.520 -0.198 112 97 90
-16.3270 48.4077 161.2124 -0.598 -0.765 -0.239 28 13 16
-15.6474 52.6753 165.6172 0.159 0.904 -0.398 46 26 28
-15.1347 52.6537 164.3217 0.210 0.741 -0.638 57 37 38
-14.8934 53.2723 166.1903 0.581 -0.532 -0.616 62 40 42
-15.3819 52.7896 162.2820 0.060 0.877 -0.477 43 25 25
-14.5841 53.8433 161.8344 -0.881 -0.336 -0.333 63 47 47
-13.9400 53.5408 158.6776 -0.904 -0.210 -0.373 50 36 35
