ply
format ascii 1.0
element vertex 24
property float x
property float y
property float z
property float nx
property float ny
property float nz
property uchar diffuse_red
property uchar diffuse_green
property uchar diffuse_blue
end_header
44.7198 51.1009 351.8534 -0.311 -0.840 -0.445 12 86 53
40.9509 48.9935 367.5931 -0.555 -0.697 -0.454 12 81 50
46.7344 51.8328 350.7394 0.069 -0.852 -0.519 7 100 56
46.5250 52.2858 352.6404 0.118 -0.879 -0.462 8 96 54
45.5634 53.6682 354.9193 -0.016 0.907 -0.421 15 91 53
53.4229 50.1578 384.4727 -0.846 0.505 -0.171 48 116 115
45.3306 57.0860 372.0052 0.441 -0.102 -0.892 14 99 60
20.8237 70.0433 348.2577 -0.902 0.279 -0.330 78 64 51
271.6659 33.0268 327.2834 -0.433 -0.878 -0.203 107 108 110
-53.4483 101.7950 326.8732 -0.666 0.656 -0.355 38 113 74
-5.9424 86.4151 368.1123 0.460 0.335 -0.822 183 178 148
-38.7401 105.0395 323.4008 -0.433 0.877 -0.209 57 70 50
-43.3932 102.2141 356.4716 -0.475 0.838 -0.268 93 77 62
-41.0536 109.7024 303.4315 -0.623 0.681 -0.385 42 123 82
-53.7906 103.2430 376.8130 -0.494 0.842 -0.218 78 61 51
-58.2651 114.7361 339.3713 -0.080 0.826 -0.558 45 126 85
-60.0824 115.6449 341.6699 -0.794 0.335 -0.508 57 131 96
-60.9051 116.2507 345.1411 -0.028 0.774 -0.632 48 128 89
-64.2570 117.8073 352.3400 0.603 0.426 -0.674 51 131 96
-78.7801 123.6828 385.0655 -0.425 0.867 -0.259 51 131 94
72.0791 115.6944 261.1979 -0.912 0.268 -0.310 248 242 226
-42.4314 145.5904 337.9615 -0.727 0.500 -0.470 31 130 86
35.2928 173.5923 354.8024 -0.921 -0.010 -0.389 179 196 186
38.1607 173.3989 349.9464 -0.926 0.078 -0.370 190 200 192
