ply
format ascii 1.0
element vertex 23
property float x
property float y
property float z
property float nx
property float ny
property float nz
property uchar diffuse_red
property uchar diffuse_green
property uchar diffuse_blue
end_header
-117.3353 -28.7456 180.6484 -0.297 -0.823 -0.484 239 233 235
-115.3182 -28.1905 178.3699 -0.272 -0.837 -0.475 240 234 236
42.8959 -11.7399 197.1364 0.911 -0.347 -0.223 106 96 94
43.3548 -11.7277 197.2204 0.896 -0.390 -0.210 103 93 91
37.0513 -3.3361 175.1931 -0.006 -0.972 -0.235 118 108 99
36.7578 -2.6062 171.8357 0.028 -0.970 -0.240 112 101 95
37.1458 -2.5895 171.8463 0.045 -0.969 -0.242 110 99 93
37.5294 -2.5709 171.8371 0.045 -0.969 -0.242 107 96 90
38.9772 -1.4045 164.6257 0.411 -0.894 -0.179 92 79 71
38.9821 -1.2495 163.0281 0.408 -0.894 -0.187 93 80 72
13.9132 -2.0428 192.7248 0.484 -0.446 -0.753 55 33 35
10.2576 -1.2682 192.6350 0.924 -0.350 -0.153 53 32 29
36.5189 2.9945 155.5367 -0.621 0.207 -0.756 98 79 72
36.4563 4.1957 153.8002 -0.430 -0.149 -0.890 88 65 59
37.0481 4.2470 153.3861 -0.249 -0.306 -0.919 86 67 60
-23.9383 8.1896 194.5015 0.407 -0.361 -0.839 186 172 159
72.3497 15.0079 190.5580 -0.095 -0.981 -0.170 43 23 25
-17.4333 48.5277 176.3186 0.959 0.030 -0.282 36 15 22
-17.0699 48.6700 177.0233 0.957 -0.036 -0.287 43 18 24
-17.1380 49.2161 177.5379 0.956 0.006 -0.293 44 19 25
-16.7701 49.3598 178.2422 0.957 0.000 -0.290 49 24 28
64.7472 67.0533 192.4269 0.867 0.149 -0.475 34 25 30
73.2033 75.4713 202.4598 0.115 -0.697 -0.708 32 24 37
