ply
format ascii 1.0
element vertex 18
property float x
property float y
property float z
property float nx
property float ny
property float nz
property uchar diffuse_red
property uchar diffuse_green
property uchar diffuse_blue
end_header
56.4058 -14.8274 155.3394 -0.635 0.145 -0.759 174 164 137
56.7670 -14.8267 155.4178 -0.366 0.200 -0.909 175 165 138
56.7734 -16.8001 163.6186 -0.514 0.313 -0.799 165 154 126
61.1323 -14.6098 162.0632 0.870 -0.075 -0.487 172 163 134
36.5266 -3.8125 158.8432 0.393 -0.657 -0.643 104 94 92
44.6666 -5.0934 182.1653 0.892 -0.371 -0.259 76 68 65
56.4340 17.8131 150.5128 0.971 -0.114 -0.210 34 14 16
28.4028 45.4724 199.5508 0.434 0.848 -0.303 56 35 30
27.9774 45.9814 199.9069 0.107 0.920 -0.377 55 31 27
-14.3492 41.5087 153.4787 0.697 -0.267 -0.665 57 32 35
-16.3533 44.5280 167.2470 -0.761 0.570 -0.310 52 31 36
-18.0599 47.0280 185.9570 0.959 0.271 -0.082 54 33 38
20.6066 45.8593 173.5248 0.370 0.905 -0.209 60 35 31
-14.8143 44.9469 153.5644 -0.812 0.036 -0.582 59 40 42
-14.8404 45.3478 153.7199 -0.804 0.042 -0.593 52 34 34
-15.2814 46.1558 154.0691 -0.777 0.256 -0.575 38 17 22
-32.2279 46.5005 151.2411 -0.083 0.598 -0.797 240 236 235
-30.7539 51.8513 191.1776 -0.207 0.962 -0.180 153 137 138
