ply
format ascii 1.0
element vertex 39
property float x
property float y
property float z
property float nx
property float ny
property float nz
property uchar diffuse_red
property uchar diffuse_green
property uchar diffuse_blue
end_header
-99.4250 99.3916 360.3111 0.821 0.141 -0.552 221 217 206
-100.1422 100.2585 361.2196 0.060 -0.776 -0.627 216 211 205
-100.6365 98.5467 377.3268 0.395 0.132 -0.909 215 212 207
-99.0481 101.2482 359.2516 0.469 -0.777 -0.420 216 216 208
-98.1980 101.1019 359.1097 0.085 -0.851 -0.518 204 207 198
-100.4897 99.3193 378.0407 0.498 0.380 -0.780 215 214 210
46.3754 72.4503 398.3949 -0.335 -0.537 -0.775 14 86 64
-2.0264 93.6759 326.5890 0.953 0.062 -0.296 67 55 43
-0.8656 93.6772 330.4763 0.956 0.032 -0.291 64 52 40
23.8812 90.3371 324.8695 -0.394 0.754 -0.526 7 134 93
28.9053 91.7694 313.1260 0.701 -0.470 -0.536 72 116 119
21.6538 93.3950 317.3956 0.920 0.326 -0.218 9 144 104
27.8477 92.9218 311.8369 -0.870 0.305 -0.389 43 101 102
25.0620 95.0538 300.3788 -0.228 0.382 -0.896 137 168 171
20.7722 94.4604 316.5443 0.947 0.287 -0.147 4 111 83
22.6875 93.6148 319.9727 0.954 0.220 -0.203 13 149 111
33.5252 88.7185 346.4650 0.876 -0.280 -0.394 64 244 205
33.2334 89.7961 345.1346 0.757 -0.439 -0.484 64 246 208
35.9216 91.9813 324.2117 0.472 0.852 -0.225 193 208 211
29.4353 92.5647 335.9930 0.721 0.672 -0.169 57 226 185
33.5175 90.5400 345.4666 0.746 -0.466 -0.476 68 250 212
35.5291 89.7015 348.8883 0.224 -0.711 -0.666 65 253 218
35.4834 90.6404 348.2699 0.072 -0.835 -0.546 66 254 221
44.6535 87.4189 366.5315 0.840 -0.489 -0.235 7 149 127
33.1855 93.4278 343.0604 0.105 -0.911 -0.398 77 252 223
47.3668 87.2171 371.1560 0.670 -0.686 -0.283 0 117 101
32.7098 94.5783 341.2172 0.246 -0.882 -0.403 82 252 226
46.6962 88.5368 368.7949 0.684 -0.664 -0.301 4 119 106
29.9722 98.2989 314.2710 -0.903 -0.143 -0.406 66 115 120
32.5324 97.2133 319.1469 0.980 0.074 -0.186 121 155 164
29.4114 96.1533 340.5017 0.968 0.207 -0.141 6 102 75
33.6394 94.9750 343.3981 0.300 -0.815 -0.496 91 253 230
35.1528 94.2693 354.4108 0.949 0.275 -0.152 28 142 116
40.9602 95.0435 344.7432 -0.911 0.336 -0.238 53 112 118
41.9868 95.4315 347.0590 -0.481 0.710 -0.514 55 112 119
34.9608 123.4893 400.1274 0.894 0.402 -0.196 113 90 56
39.5587 148.0512 372.8121 -0.832 0.347 -0.432 29 85 98
-41.5228 175.1926 326.8193 0.483 0.835 -0.266 18 106 64
-42.4714 176.6800 323.1711 0.424 0.875 -0.232 21 112 69
