ply
format ascii 1.0
element vertex 10
property float x
property float y
property float z
property float nx
property float ny
property float nz
property uchar diffuse_red
property uchar diffuse_green
property uchar diffuse_blue
end_header
10.2649 48.4334 316.9218 0.538 -0.791 -0.293 23 84 76
-94.0275 99.6284 373.8163 0.834 -0.464 -0.299 56 118 81
44.6636 74.7654 380.9580 0.739 -0.635 -0.224 55 234 179
37.6026 79.2642 362.3041 0.672 -0.702 -0.236 42 210 161
39.6317 79.4167 365.2248 0.674 -0.700 -0.237 57 239 190
43.1150 81.4492 373.2834 -0.929 0.022 -0.369 67 254 211
41.0486 83.0084 362.3501 0.838 -0.505 -0.206 32 208 169
39.6342 84.6347 357.8143 0.856 -0.477 -0.200 34 209 170
27.2454 91.3016 324.1785 0.870 -0.453 -0.192 59 250 207
39.9329 102.1415 356.0546 -0.214 -0.958 -0.191 233 254 255
