ply
format ascii 1.0
element vertex 18
property float x
property float y
property float z
property float nx
property float ny
property float nz
property uchar diffuse_red
property uchar diffuse_green
property uchar diffuse_blue
end_header
-5.2699 -43.2880 169.6228 -0.892 -0.217 -0.397 206 195 173
-11.1338 -34.4229 179.9647 0.830 -0.249 -0.499 186 172 143
30.2383 -18.0647 152.3649 0.951 -0.027 -0.307 131 115 100
54.2248 -16.5429 155.8685 0.085 0.933 -0.349 125 113 97
54.8713 -16.5269 156.7228 0.346 0.897 -0.275 127 115 99
52.8656 -16.4734 168.1044 0.833 -0.135 -0.536 93 80 72
61.3374 -14.5544 174.5747 0.780 0.538 -0.318 92 81 75
60.5645 -13.7880 173.5476 0.552 0.768 -0.325 80 67 61
34.1499 -13.9140 159.6300 -0.858 -0.407 -0.314 99 90 85
34.6728 -13.1604 157.4276 -0.823 0.114 -0.557 85 75 74
61.5660 -11.8175 165.7417 -0.391 0.794 -0.466 75 62 54
61.7110 -11.4269 166.1481 -0.375 0.806 -0.459 70 57 49
34.8248 -12.3637 161.2410 -0.830 -0.399 -0.391 78 70 67
34.7845 -12.0142 159.5836 -0.721 -0.535 -0.439 73 65 62
-25.2595 40.0937 188.4930 0.332 -0.897 -0.292 72 46 49
-25.4291 40.5952 185.5107 -0.519 -0.821 -0.240 73 41 46
-25.2601 40.5835 183.9678 -0.507 -0.829 -0.237 73 41 46
-18.6285 50.1612 187.6022 0.725 -0.664 -0.182 36 17 21
