ply
format ascii 1.0
element vertex 39
property float x
property float y
property float z
property float nx
property float ny
property float nz
property uchar diffuse_red
property uchar diffuse_green
property uchar diffuse_blue
end_header
47.2925 56.3374 334.0166 0.133 0.387 -0.912 14 79 49
57.0626 55.4528 380.2180 -0.823 0.550 -0.143 187 207 218
57.6945 57.0702 385.4009 -0.820 0.555 -0.136 195 213 225
63.6854 62.7826 350.2822 -0.821 0.554 -0.135 204 214 226
-4.0499 71.5280 388.7154 -0.893 0.237 -0.383 167 161 137
14.8074 75.4067 372.1816 -0.710 0.681 -0.179 61 47 38
-32.2269 91.6829 373.8161 0.899 -0.147 -0.412 140 133 117
144.6658 61.1291 356.1808 -0.295 0.500 -0.814 170 170 168
-32.3426 93.8565 377.5421 -0.292 0.829 -0.477 146 139 121
-15.9552 100.0843 348.1054 -0.665 -0.588 -0.461 166 158 137
-62.1704 103.9990 393.6924 -0.057 -0.976 -0.210 79 62 52
51.3722 87.8110 366.7322 0.230 0.929 -0.289 5 98 67
-46.0850 110.3165 361.7690 -0.355 -0.872 -0.338 79 63 50
-36.9065 110.0865 348.4038 -0.104 -0.965 -0.242 174 157 139
-30.3913 113.0840 332.6162 -0.339 -0.890 -0.305 87 70 54
-27.6281 112.6544 331.5757 -0.385 -0.864 -0.324 197 181 158
-55.0836 115.7039 360.7589 -0.613 -0.669 -0.420 48 93 64
-52.1233 115.6120 356.2280 -0.668 -0.599 -0.442 41 71 45
-35.3426 111.8593 377.1606 -0.747 -0.178 -0.641 194 189 157
-43.3730 124.4703 314.8573 -0.824 -0.236 -0.515 48 133 94
-10.0759 123.4922 274.6014 -0.604 -0.691 -0.396 54 63 44
-66.3212 129.4713 347.2297 -0.526 -0.746 -0.408 234 229 233
-33.6023 127.0604 296.3788 -0.849 -0.193 -0.493 55 134 102
-62.1752 132.4995 340.3423 -0.613 -0.678 -0.406 237 232 236
-50.7308 131.4765 322.6578 -0.552 -0.734 -0.395 207 221 224
-47.8375 131.1991 318.4590 -0.579 -0.707 -0.406 137 158 159
21.2469 129.1412 211.4642 -0.383 -0.885 -0.265 43 79 51
-52.1350 145.9524 353.0701 -0.591 0.723 -0.358 46 132 95
44.7110 126.2299 388.8419 -0.940 0.202 -0.277 115 95 60
58.7769 125.6388 328.4962 -0.862 0.428 -0.271 168 154 125
-0.6037 146.0193 322.1512 -0.854 0.344 -0.390 76 62 53
-11.2677 152.3117 336.3475 -0.912 -0.103 -0.397 56 84 61
46.5068 147.6635 316.0214 -0.219 0.716 -0.663 20 95 64
46.9346 164.3693 320.7405 -0.936 0.072 -0.345 203 220 214
26.4781 178.9212 383.1690 -0.931 -0.012 -0.364 161 185 171
26.6290 179.8469 383.2427 -0.931 -0.031 -0.364 193 215 202
34.6236 175.3052 355.7130 -0.906 0.158 -0.393 206 219 212
54.5261 165.2743 292.2551 -0.933 0.095 -0.347 192 190 201
48.1637 170.0871 304.2095 0.628 -0.420 -0.655 184 185 189
