ply
format ascii 1.0
element vertex 38
property float x
property float y
property float z
property float nx
property float ny
property float nz
property uchar diffuse_red
property uchar diffuse_green
property uchar diffuse_blue
end_header
-12.4985 -32.2478 196.1037 0.935 -0.242 -0.258 179 168 138
-12.0740 -32.3638 196.9378 0.935 -0.242 -0.258 178 167 137
-13.2561 -31.9740 199.8876 0.239 -0.857 -0.456 177 166 138
-14.5616 -31.1952 197.5958 0.392 -0.854 -0.342 183 172 144
-13.4934 -30.3595 195.7864 0.438 -0.827 -0.352 179 165 138
-116.9341 -28.3837 179.6215 -0.148 -0.919 -0.366 221 215 219
34.9867 -13.1737 157.3257 0.253 0.117 -0.960 119 109 99
35.4277 -13.1939 157.7286 0.358 0.069 -0.931 117 107 97
35.7115 -13.1471 157.4350 0.333 -0.014 -0.943 118 105 97
36.0869 -13.1392 157.5464 0.333 -0.014 -0.943 118 105 97
33.2551 -12.7413 155.8336 0.522 -0.230 -0.821 125 115 105
57.3064 -9.6323 151.4099 0.439 -0.712 -0.548 145 130 109
43.7850 -12.0845 187.7964 -0.518 -0.789 -0.330 100 88 88
61.6974 -13.1879 210.8218 0.920 0.094 -0.380 84 73 69
43.2752 -11.6435 187.4423 -0.519 -0.787 -0.332 97 87 86
43.3379 -11.0847 185.9747 -0.568 -0.748 -0.342 93 83 82
45.4779 -9.5372 189.9007 -0.763 -0.513 -0.392 84 76 73
38.4910 -1.7562 185.7451 0.861 -0.401 -0.313 102 82 73
39.9154 0.3239 170.7831 0.037 -0.712 -0.701 98 78 71
59.8401 28.2364 160.9536 0.931 0.305 -0.199 40 21 25
64.3685 31.1882 174.1356 -0.412 -0.527 -0.743 44 25 29
64.6646 31.8000 172.9786 -0.355 0.745 -0.564 32 13 19
-25.1999 38.6249 188.9365 0.214 -0.942 -0.258 79 50 52
-25.1690 39.0253 188.5767 0.226 -0.935 -0.272 75 46 48
-19.3516 43.2830 195.1887 -0.235 -0.960 -0.152 50 30 31
28.0124 45.3286 203.7068 0.906 -0.417 -0.072 59 34 30
-19.1138 43.2156 192.6124 -0.246 -0.956 -0.157 48 28 30
27.9532 45.0276 200.0334 0.811 -0.575 -0.103 54 30 26
27.7823 45.9842 202.2321 0.827 -0.215 -0.520 54 30 28
-18.6895 50.2565 195.9069 0.611 0.482 -0.628 55 36 40
78.8674 55.3123 210.5302 0.709 -0.700 -0.084 39 25 25
75.6920 53.9398 203.2603 0.725 -0.684 -0.081 43 29 29
-23.1772 53.9037 191.3083 -0.775 -0.543 -0.322 32 17 14
-16.1178 46.5943 162.9722 -0.908 -0.339 -0.248 36 17 21
-22.6207 53.5100 186.4280 -0.783 -0.521 -0.339 39 24 19
-21.9535 53.0368 184.7262 -0.791 -0.509 -0.340 31 17 14
-11.8900 42.2614 136.0784 -0.833 -0.503 -0.230 55 35 34
-15.9323 58.4610 181.5381 -0.842 -0.286 -0.457 58 36 38
