ply
format ascii 1.0
element vertex 12
property float x
property float y
property float z
property float nx
property float ny
property float nz
property uchar diffuse_red
property uchar diffuse_green
property uchar diffuse_blue
end_header
160.9260 -46.2136 377.1753 0.705 0.504 -0.499 184 159 129
161.2330 -45.8860 374.4532 0.198 0.527 -0.826 185 160 130
-14.3746 -5.6007 397.4255 -0.852 0.392 -0.348 15 69 43
-12.3460 -5.4759 392.8250 -0.853 0.351 -0.386 14 70 43
-12.2705 -4.5461 393.0739 -0.833 0.395 -0.388 12 68 39
-10.6992 -4.5320 390.3553 -0.838 0.336 -0.430 12 68 39
48.3113 57.4226 341.3083 -0.816 -0.538 -0.213 26 76 51
21.1353 73.0851 341.9357 -0.919 -0.278 -0.281 42 32 22
18.4331 75.9735 353.5355 -0.939 -0.189 -0.286 74 66 53
25.6127 74.5264 328.1635 -0.646 -0.733 -0.214 52 44 33
-39.0438 105.1274 338.0509 -0.877 0.213 -0.431 64 50 37
-56.0226 116.6382 376.5208 -0.875 0.119 -0.469 68 69 53
