ply
format ascii 1.0
element vertex 34
property float x
property float y
property float z
property float nx
property float ny
property float nz
property uchar diffuse_red
property uchar diffuse_green
property uchar diffuse_blue
end_header
-54.1209 55.4015 322.1188 0.235 0.725 -0.648 60 48 36
62.3631 69.7705 305.7352 0.057 -0.960 -0.274 198 197 193
59.6416 71.4485 308.3687 0.138 -0.951 -0.277 201 197 196
57.7871 73.0711 297.2051 0.319 -0.898 -0.303 201 200 196
21.7589 82.9254 316.5111 0.730 -0.635 -0.251 56 229 175
26.3862 81.3915 323.4095 0.283 -0.909 -0.305 6 145 106
20.1666 84.4802 303.5757 0.596 -0.510 -0.621 0 118 90
73.1308 70.8600 359.9332 -0.160 -0.645 -0.747 194 193 191
21.1779 85.9741 309.3186 0.175 -0.926 -0.335 24 194 149
53.1207 82.2143 284.8242 0.301 -0.908 -0.292 186 185 183
56.4606 81.1047 290.2353 -0.749 0.010 -0.663 186 185 183
56.6597 81.8754 288.9971 -0.635 0.453 -0.626 193 192 190
54.7959 83.0333 287.6636 -0.386 -0.335 -0.859 198 197 195
56.1043 82.7943 287.6026 -0.571 0.003 -0.821 201 200 198
56.6800 82.7027 287.4156 -0.589 0.012 -0.808 199 198 196
29.3363 86.3452 343.8031 -0.910 -0.012 -0.415 3 111 79
28.6173 88.1706 331.9906 0.087 0.943 -0.321 62 255 211
48.7831 86.8131 358.6347 -0.419 -0.893 -0.163 194 211 218
34.5843 90.4953 355.8971 -0.586 -0.802 -0.116 8 128 100
27.8346 93.0387 333.7711 -0.768 -0.616 -0.178 43 188 159
31.3653 92.2442 350.7823 0.561 -0.806 -0.187 11 98 66
43.4150 90.2736 345.6987 -0.434 -0.887 -0.157 200 219 226
29.5659 93.9919 340.2122 -0.554 -0.824 -0.123 27 146 118
41.1929 91.4044 348.0147 -0.349 -0.925 -0.148 48 108 116
41.2893 91.6048 343.8951 -0.350 -0.923 -0.158 133 167 176
39.0442 93.3968 333.2467 -0.442 -0.884 -0.151 200 215 222
26.1556 96.4724 336.2137 0.350 -0.905 -0.242 25 88 59
40.6430 93.2140 366.1215 -0.955 0.217 -0.204 140 248 232
26.0122 99.3889 307.0662 0.578 -0.781 -0.239 40 107 113
22.4533 102.8098 313.7616 0.434 -0.540 -0.721 189 229 220
33.6871 100.6275 341.0275 -0.743 -0.623 -0.245 220 255 255
-64.5389 141.2718 294.6068 0.575 0.555 -0.601 41 75 50
-63.0473 141.0467 295.9563 0.428 -0.266 -0.864 51 63 49
-74.9791 145.6837 334.5604 -0.572 0.739 -0.355 28 119 75
