ply
format ascii 1.0
element vertex 17
property float x
property float y
property float z
property float nx
property float ny
property float nz
property uchar diffuse_red
property uchar diffuse_green
property uchar diffuse_blue
end_header
160.8346 -46.1033 375.0973 -0.753 -0.362 -0.549 191 170 141
162.7584 -46.5394 375.6929 -0.034 0.294 -0.955 193 172 143
-9.9907 -4.0030 389.4639 -0.842 -0.163 -0.515 23 72 43
63.1022 59.9914 350.0667 -0.905 0.371 -0.208 184 197 213
62.9155 61.0023 354.6059 -0.905 0.372 -0.208 186 199 215
8.9016 75.3668 394.3926 -0.916 -0.261 -0.306 68 56 44
16.3257 73.8444 362.2790 -0.920 -0.244 -0.306 50 38 26
300.0420 30.2225 381.1982 0.781 0.566 -0.265 231 227 228
22.2396 72.7012 337.0187 -0.943 -0.107 -0.314 67 54 45
257.8495 36.2099 295.6391 -0.025 -0.989 -0.146 73 73 73
20.0759 76.6377 342.3399 -0.614 -0.749 -0.249 121 109 97
27.4176 74.3295 320.7411 -0.707 -0.652 -0.273 74 61 52
21.9487 76.6893 333.4971 -0.594 -0.767 -0.241 132 120 108
29.1047 74.3849 312.3936 -0.673 -0.695 -0.252 75 62 53
22.0714 77.2554 329.5018 -0.558 -0.799 -0.224 171 162 145
-67.5897 101.5062 377.6153 -0.502 0.659 -0.560 26 111 69
-67.3651 102.3806 377.4062 -0.215 0.947 -0.237 28 114 69
