ply
format ascii 1.0
element vertex 17
property float x
property float y
property float z
property float nx
property float ny
property float nz
property uchar diffuse_red
property uchar diffuse_green
property uchar diffuse_blue
end_header
71.8548 -32.9734 201.6684 -0.385 -0.589 -0.710 199 191 170
71.3614 -32.5044 201.5034 -0.345 -0.803 -0.486 195 187 166
-91.0360 -25.4523 139.4389 -0.697 0.631 -0.340 232 228 229
73.1901 -26.8894 192.5977 0.129 -0.924 -0.361 195 187 166
-13.4028 -29.4010 189.7899 -0.648 -0.658 -0.385 183 174 145
39.5975 -0.2789 172.8967 -0.715 0.163 -0.679 105 92 84
41.6167 -0.8479 178.4903 -0.455 0.333 -0.826 100 87 79
74.2350 19.0328 203.7621 0.795 0.571 -0.205 54 36 34
28.4853 45.1061 200.7765 -0.111 0.088 -0.990 57 31 30
28.9459 45.1056 200.7511 -0.111 0.088 -0.990 55 31 31
-19.1744 45.3803 187.5316 -0.252 0.913 -0.320 42 21 26
-12.8208 41.5769 139.4961 0.373 -0.913 -0.165 58 38 39
-12.7165 41.7425 138.4266 0.409 -0.896 -0.173 51 31 32
-12.3485 42.0317 138.1074 0.836 -0.471 -0.280 52 30 32
-14.0902 42.9301 141.3025 -0.607 -0.136 -0.783 37 18 22
78.1578 69.1624 199.2632 -0.718 -0.577 -0.390 37 23 36
78.1977 68.9001 198.2556 -0.669 -0.639 -0.381 29 17 29
