ply
format ascii 1.0
element vertex 16
property float x
property float y
property float z
property float nx
property float ny
property float nz
property uchar diffuse_red
property uchar diffuse_green
property uchar diffuse_blue
end_header
54.6178 -10.0985 149.1933 0.275 -0.025 -0.961 165 152 120
55.1126 -9.8688 149.7012 -0.063 -0.483 -0.873 162 147 118
39.2277 -6.3680 171.0963 0.633 -0.249 -0.733 108 97 93
37.2756 -5.6485 170.9716 -0.078 0.866 -0.494 103 94 87
39.5266 0.0208 171.0010 0.623 0.734 -0.272 93 83 74
39.8766 0.0634 170.8480 0.667 0.698 -0.262 91 81 72
65.4600 5.1899 205.5811 -0.816 0.287 -0.502 63 44 38
64.8020 6.1888 204.9103 0.031 -0.923 -0.384 67 46 41
66.9735 5.7845 209.0859 -0.489 0.432 -0.758 57 40 33
66.5629 25.4969 168.6781 -0.033 -0.761 -0.647 46 32 32
66.5160 25.8841 168.5585 0.057 -0.799 -0.599 36 22 22
-16.8386 42.2833 174.8310 0.219 0.952 -0.213 62 38 38
-15.9959 44.9242 166.8265 0.219 -0.638 -0.738 56 34 36
-15.7264 46.6784 164.1013 0.817 0.139 -0.560 62 43 45
-15.3593 46.7225 164.4679 0.816 0.139 -0.561 61 39 42
-33.8423 47.1206 161.5934 -0.789 0.482 -0.381 237 236 234
