ply
format ascii 1.0
element vertex 11
property float x
property float y
property float z
property float nx
property float ny
property float nz
property uchar diffuse_red
property uchar diffuse_green
property uchar diffuse_blue
end_header
-77.4335 -105.8868 167.4656 0.333 0.548 -0.767 69 70 54
-78.4166 -105.9412 168.5151 -0.137 0.771 -0.622 84 95 78
-69.6001 -97.8581 147.4557 -0.873 -0.013 -0.487 47 86 59
42.2760 -55.5269 173.0257 -0.110 -0.612 -0.783 201 198 191
71.5077 -4.2148 180.3594 -0.238 0.060 -0.969 204 198 176
17.7443 -11.6537 182.9712 -0.714 0.584 -0.387 206 198 177
67.0499 -0.7562 197.6003 0.848 0.257 -0.464 194 186 165
81.6118 3.8230 196.0880 -0.169 -0.302 -0.938 195 184 164
14.8757 -7.1865 187.7560 -0.860 0.302 -0.412 196 184 158
8.1826 -4.3392 184.7915 0.914 -0.381 -0.138 201 191 166
9.0642 -4.1566 184.9529 0.438 -0.803 -0.404 198 186 162
