ply
format ascii 1.0
element vertex 9
property float x
property float y
property float z
property float nx
property float ny
property float nz
property uchar diffuse_red
property uchar diffuse_green
property uchar diffuse_blue
end_header
-72.9549 -101.7148 155.0606 -0.769 -0.287 -0.572 29 116 73
-61.8105 -85.1654 184.1896 -0.889 0.046 -0.456 199 198 203
-61.7305 -84.0543 179.5084 -0.774 -0.366 -0.518 207 205 208
68.7938 -0.3020 193.6119 -0.308 -0.383 -0.871 184 172 146
68.5162 -0.0360 193.0676 -0.245 -0.308 -0.919 181 170 142
68.9161 0.0105 192.9725 -0.245 -0.308 -0.919 181 169 143
69.5964 0.3246 193.6718 -0.674 -0.403 -0.618 181 169 143
11.0885 -6.8720 184.5486 0.934 0.242 -0.264 193 181 155
0.3799 -1.4548 188.7548 0.552 0.295 -0.780 218 214 202
