ply
format ascii 1.0
element vertex 12
property float x
property float y
property float z
property float nx
property float ny
property float nz
property uchar diffuse_red
property uchar diffuse_green
property uchar diffuse_blue
end_header
67.9351 1.0292 195.4062 -0.819 0.044 -0.572 190 178 154
68.2862 1.5484 195.3416 -0.822 0.018 -0.569 186 174 148
68.3325 2.0802 195.6740 -0.558 -0.539 -0.631 184 172 146
16.9950 -7.3047 185.8810 -0.742 0.009 -0.670 194 184 159
12.2656 -9.8320 159.9599 -0.683 -0.344 -0.645 193 179 153
12.2437 -8.4877 165.3539 -0.203 0.651 -0.731 195 179 156
-2.1149 -9.0683 170.3159 -0.583 0.792 -0.184 241 234 224
-2.2188 -7.9447 174.2108 -0.572 0.799 -0.184 239 235 224
-0.4766 -3.6240 183.7727 -0.399 0.892 -0.213 225 219 207
1.0455 -0.1432 190.6192 -0.349 0.913 -0.212 210 204 188
-1.2970 -1.1243 185.4291 -0.239 0.951 -0.196 229 222 214
-0.4020 -0.0539 189.8759 -0.653 0.730 -0.202 226 220 208
