ply
format ascii 1.0
element vertex 9
property float x
property float y
property float z
property float nx
property float ny
property float nz
property uchar diffuse_red
property uchar diffuse_green
property uchar diffuse_blue
end_header
-255.1904 -32.1699 391.2852 -0.840 -0.137 -0.526 186 84 98
-86.8320 15.8946 278.3514 0.605 0.596 -0.528 102 115 95
-93.1885 78.4338 393.4682 -0.770 -0.407 -0.491 151 134 118
-91.3431 77.5184 390.4994 -0.774 -0.391 -0.498 146 125 104
-94.0323 79.1432 391.9147 -0.776 -0.407 -0.482 143 127 114
-96.7373 81.1373 394.8698 -0.836 -0.538 -0.107 209 199 197
-93.9620 77.2142 375.6899 -0.832 -0.545 -0.105 132 116 103
-98.1648 85.5276 396.2982 -0.790 -0.606 -0.098 230 221 222
-80.4229 68.4469 272.7078 -0.500 -0.847 -0.183 23 70 38
