ply
format ascii 1.0
element vertex 12
property float x
property float y
property float z
property float nx
property float ny
property float nz
property uchar diffuse_red
property uchar diffuse_green
property uchar diffuse_blue
end_header
-40.7495 -101.6344 169.7288 -0.536 -0.746 -0.394 56 101 107
-72.4787 -102.7969 158.0340 -0.782 -0.316 -0.537 30 116 71
-69.0742 -91.8340 182.6413 0.148 0.852 -0.502 42 106 79
66.1032 -0.8783 194.9438 0.834 0.363 -0.417 182 171 143
73.8690 1.1847 193.9270 0.681 0.228 -0.695 181 169 143
16.1205 -11.9412 183.8278 0.933 -0.199 -0.301 194 184 159
66.4073 1.2579 195.6113 0.919 0.089 -0.385 171 160 130
13.8484 -15.5743 168.8751 0.973 -0.195 -0.121 192 182 157
12.7784 -15.4551 167.2168 0.419 -0.638 -0.646 192 185 159
18.2447 -8.5483 181.9317 -0.595 0.713 -0.372 179 163 137
9.5669 -11.6271 170.6137 0.905 0.407 -0.122 196 184 158
14.4629 -11.9661 166.9067 0.827 -0.545 -0.138 179 162 134
