ply
format ascii 1.0
element vertex 13
property float x
property float y
property float z
property float nx
property float ny
property float nz
property uchar diffuse_red
property uchar diffuse_green
property uchar diffuse_blue
end_header
-4.0271 155.4389 298.5238 -0.925 -0.085 -0.371 57 52 32
-4.3193 156.6581 294.0228 -0.907 -0.350 -0.236 65 59 37
-3.3587 156.1085 295.2743 -0.924 -0.255 -0.284 79 71 48
-3.1282 156.5734 293.2371 -0.926 -0.249 -0.284 87 77 52
-2.9630 157.1171 290.9527 -0.921 -0.256 -0.294 91 79 55
-2.6457 156.0347 297.7135 -0.957 -0.192 -0.218 82 78 53
29.9620 128.3712 379.8619 -0.041 -0.936 -0.349 121 103 67
-13.3061 161.8238 296.2494 -0.496 -0.596 -0.632 63 53 43
-43.9873 154.8916 358.5302 -0.614 0.235 -0.753 61 48 39
4.2605 190.1946 388.3842 -0.887 0.364 -0.285 122 148 139
9.3351 189.1796 386.4464 0.165 -0.855 -0.492 162 184 181
8.9235 190.0953 387.7929 -0.846 0.216 -0.487 180 194 194
7.1040 191.1436 391.3234 -0.956 0.203 -0.212 178 188 189
