ply
format ascii 1.0
element vertex 22
property float x
property float y
property float z
property float nx
property float ny
property float nz
property uchar diffuse_red
property uchar diffuse_green
property uchar diffuse_blue
end_header
19.4512 28.6763 361.7518 -0.292 -0.933 -0.212 16 83 52
5.9541 52.9976 288.0513 0.635 -0.748 -0.193 23 123 87
6.2324 55.9667 281.9195 0.735 -0.654 -0.182 38 187 132
79.1638 60.4764 372.8103 -0.544 -0.805 -0.238 191 192 187
81.8773 59.4587 358.6259 -0.662 -0.717 -0.218 198 197 195
67.8032 57.8491 323.3697 -0.596 -0.589 -0.546 197 195 196
-14.5186 61.0706 230.2636 0.391 -0.901 -0.189 17 76 56
73.9312 62.4481 366.8317 -0.357 -0.890 -0.284 205 205 203
112.9523 58.1285 373.5993 0.372 0.393 -0.841 203 202 200
112.1815 58.9786 372.0072 -0.118 0.217 -0.969 206 204 205
-92.8280 91.6684 295.0359 0.785 0.465 -0.409 61 138 104
-51.2565 92.5015 332.5154 0.319 0.933 -0.170 181 178 147
-68.2429 101.8768 324.8633 0.459 -0.519 -0.721 69 55 44
46.4092 92.8830 348.9593 0.225 -0.948 -0.226 196 208 222
-53.1557 105.7182 319.8516 -0.756 -0.160 -0.634 185 184 153
-53.2346 105.8049 312.5898 -0.925 -0.239 -0.294 159 158 127
-52.5000 105.6764 312.5118 -0.932 -0.205 -0.300 129 128 100
-52.2945 105.5229 308.2445 -0.910 -0.281 -0.305 114 112 89
-54.8801 105.9696 304.8979 -0.573 -0.800 -0.176 181 180 149
-53.3870 105.3808 299.6983 -0.559 -0.809 -0.183 113 111 90
-54.5183 105.5440 296.2440 -0.726 -0.654 -0.211 116 114 91
-56.2485 105.9085 293.3710 -0.613 -0.765 -0.200 178 174 147
