ply
format ascii 1.0
element vertex 26
property float x
property float y
property float z
property float nx
property float ny
property float nz
property uchar diffuse_red
property uchar diffuse_green
property uchar diffuse_blue
end_header
-26.9170 71.7154 355.0081 -0.252 -0.470 -0.846 113 110 95
-19.4970 77.4563 327.7672 0.026 0.964 -0.264 67 55 43
-19.2680 78.0152 331.4156 -0.015 0.959 -0.282 148 138 126
22.8463 78.0493 306.3925 0.161 0.969 -0.187 191 200 209
-58.5055 87.9140 357.2262 -0.922 -0.285 -0.262 182 175 149
-58.4955 91.0178 351.2525 -0.924 -0.283 -0.257 166 155 135
-57.8557 93.0760 345.4117 -0.953 -0.164 -0.253 148 137 117
-57.3683 94.1463 340.3406 -0.815 -0.491 -0.308 144 132 116
-58.1616 92.6806 351.0409 -0.952 -0.188 -0.241 146 135 115
-57.7696 94.2040 344.0200 -0.956 -0.152 -0.252 143 132 112
44.7764 72.3136 346.8077 0.740 0.570 -0.356 168 164 163
-56.9708 95.4759 341.3104 -0.808 -0.517 -0.282 134 121 105
-20.2185 84.2754 357.1540 -0.763 -0.565 -0.314 112 105 89
37.8130 72.3006 356.9178 -0.574 0.749 -0.330 29 118 112
-57.2482 95.0846 346.9744 -0.907 -0.340 -0.249 126 115 95
-54.6381 98.9061 327.4750 -0.542 -0.694 -0.474 121 109 95
-20.3710 85.6157 355.1310 -0.853 -0.331 -0.403 116 109 91
41.7244 69.8107 368.2440 -0.483 0.764 -0.428 32 121 115
-57.5760 96.3164 349.2623 -0.913 -0.332 -0.236 119 108 88
-57.2576 97.9822 341.3506 -0.890 -0.384 -0.247 120 109 89
36.3727 78.3213 354.1311 -0.015 0.901 -0.433 8 138 100
4.6709 85.5426 355.0959 0.221 0.907 -0.357 53 40 32
37.2971 78.5073 356.3857 -0.030 0.907 -0.421 3 132 94
-89.4075 115.8352 307.0721 0.480 -0.199 -0.854 44 94 57
39.5963 78.0820 360.2717 0.144 0.908 -0.393 8 115 95
-39.4629 97.4857 371.6587 -0.440 0.861 -0.255 177 173 148
