ply
format ascii 1.0
element vertex 27
property float x
property float y
property float z
property float nx
property float ny
property float nz
property uchar diffuse_red
property uchar diffuse_green
property uchar diffuse_blue
end_header
-5.2083 -43.5948 169.3970 0.443 -0.133 -0.887 192 180 156
-5.6533 -43.2875 170.3280 0.363 -0.608 -0.706 194 179 156
60.9418 -40.4662 212.3990 -0.417 0.388 -0.822 180 168 142
62.2873 -40.3658 212.2716 -0.393 0.427 -0.814 180 168 144
58.6640 -39.6196 204.8384 0.652 0.381 -0.655 178 166 140
69.0860 -36.6520 215.1978 0.918 0.073 -0.391 176 161 132
73.5901 -34.5844 208.7486 -0.039 -0.385 -0.922 187 171 146
72.7356 -33.5435 205.3044 0.940 -0.083 -0.331 182 165 139
79.4883 -30.4240 209.4782 -0.648 -0.144 -0.748 176 167 138
70.2135 -29.6105 189.9743 0.638 0.617 -0.461 167 156 126
78.5463 -29.0275 208.3358 -0.424 0.349 -0.836 169 155 126
58.7730 -16.5093 159.6272 -0.184 0.856 -0.483 78 65 59
38.0590 -15.8670 172.0482 0.155 0.214 -0.965 94 84 82
29.9210 -14.6814 166.3767 0.372 -0.928 -0.033 122 109 100
65.8785 -12.3144 175.5076 0.983 -0.109 -0.150 68 54 51
28.9210 -14.7623 161.3337 0.364 -0.931 -0.032 123 110 101
40.9466 -10.4553 200.0768 0.417 -0.909 -0.024 103 94 87
42.7551 -9.8322 206.2768 0.416 -0.909 -0.025 101 92 85
62.3842 -11.6725 166.6871 0.984 -0.102 -0.149 66 52 49
33.7267 -12.6473 165.3618 0.571 -0.820 -0.021 117 106 100
61.5620 -11.5227 164.6117 0.983 -0.107 -0.151 64 50 47
47.1207 -6.7812 205.8097 0.435 -0.899 -0.052 98 85 77
59.3464 -11.0539 159.0250 0.983 -0.102 -0.152 60 46 45
41.8279 -8.5474 182.3289 0.417 -0.831 -0.368 97 84 76
55.8032 -10.0456 150.1156 0.964 -0.217 -0.154 51 37 34
34.6856 -8.6889 159.2580 -0.846 -0.016 -0.534 104 85 78
-13.0550 14.1260 165.9716 -0.112 -0.954 -0.277 51 31 32
