ply
format ascii 1.0
element vertex 15
property float x
property float y
property float z
property float nx
property float ny
property float nz
property uchar diffuse_red
property uchar diffuse_green
property uchar diffuse_blue
end_header
-57.6063 -90.0954 172.9738 -0.887 0.114 -0.447 20 79 49
-53.5304 -86.2211 166.1152 -0.867 -0.096 -0.489 145 173 158
-54.8265 -86.2600 168.4609 -0.798 -0.319 -0.511 177 204 189
-55.8202 -85.9622 169.8156 -0.837 -0.240 -0.491 197 217 205
-55.5322 -85.2024 168.6973 -0.824 -0.283 -0.490 200 216 205
-42.1975 -74.5262 136.6933 0.429 -0.777 -0.460 200 206 204
68.0536 -5.3211 186.5993 0.714 0.615 -0.335 218 213 193
73.3751 0.4689 195.4024 0.224 -0.683 -0.695 198 190 171
73.7578 0.5122 195.2442 0.192 -0.683 -0.705 199 191 172
17.8253 -8.0910 192.1303 0.861 -0.484 -0.158 209 201 182
17.1402 -7.9104 190.4581 0.895 -0.429 -0.124 207 199 178
78.1356 1.4627 189.1238 -0.243 -0.803 -0.545 200 192 171
12.5287 -4.9158 176.7823 0.850 -0.427 -0.309 193 178 155
-0.9986 -3.4129 180.1378 -0.709 0.676 -0.201 226 220 208
0.5087 -0.2632 186.9676 -0.832 0.507 -0.226 212 205 189
