ply
format ascii 1.0
element vertex 29
property float x
property float y
property float z
property float nx
property float ny
property float nz
property uchar diffuse_red
property uchar diffuse_green
property uchar diffuse_blue
end_header
41.2827 -9.2994 183.5020 0.678 0.582 -0.450 96 89 83
39.9960 -7.2433 169.0256 0.683 -0.575 -0.450 97 87 85
37.9767 -6.2386 166.7916 -0.043 -0.851 -0.523 97 89 86
37.7320 -5.7123 165.7156 -0.132 -0.812 -0.568 91 81 80
40.0622 -4.0516 182.0455 0.018 -0.971 -0.237 103 94 87
76.7967 13.1653 205.3053 -0.012 -0.863 -0.505 52 30 33
76.5976 13.6407 204.7808 0.195 -0.806 -0.559 51 29 32
-13.0668 18.4037 177.1899 0.215 -0.789 -0.576 55 30 33
38.9964 21.3095 149.1426 -0.434 -0.737 -0.518 70 42 38
61.9171 22.8491 157.9311 -0.158 -0.824 -0.544 43 24 30
74.4904 32.3222 197.3620 0.829 -0.538 -0.152 51 31 33
-24.7950 39.3754 184.9468 -0.209 -0.705 -0.677 76 51 54
57.3982 44.0974 208.0755 -0.605 -0.010 -0.797 47 27 26
28.9102 44.2125 203.4591 0.128 0.670 -0.731 61 33 32
29.3934 44.2288 203.5493 0.128 0.670 -0.731 55 29 28
28.3550 44.6167 202.9020 0.983 -0.127 -0.132 65 37 34
29.4130 44.7457 203.7561 0.527 0.801 -0.283 55 29 28
28.2139 44.9604 201.9229 0.996 -0.005 -0.088 62 34 31
28.4272 45.1830 200.1345 0.557 0.750 -0.357 54 28 27
29.0398 45.3448 201.2090 0.565 0.737 -0.370 51 25 24
28.4986 45.7508 200.7226 0.997 0.024 -0.074 52 26 25
-19.6228 45.7176 195.9868 -0.629 -0.719 -0.295 46 21 25
23.7364 50.8134 196.7814 -0.031 -0.938 -0.346 48 24 22
-15.6924 45.9503 161.0424 0.071 0.964 -0.255 37 16 21
-14.8908 45.9469 161.0222 0.168 0.956 -0.242 54 29 33
-16.3256 47.1366 163.0337 0.663 0.252 -0.705 37 16 21
-22.9752 53.7028 189.6352 -0.701 -0.680 -0.214 32 16 16
-16.2628 54.4000 164.5610 -0.661 -0.670 -0.338 35 19 22
-14.7248 54.0175 161.2659 -0.334 -0.695 -0.636 49 29 30
