ply
format ascii 1.0
element vertex 16
property float x
property float y
property float z
property float nx
property float ny
property float nz
property uchar diffuse_red
property uchar diffuse_green
property uchar diffuse_blue
end_header
-73.4532 -113.1816 142.0090 -0.839 0.434 -0.329 44 74 48
-72.6114 -112.3520 140.9588 -0.855 0.378 -0.354 49 68 46
-71.8570 -99.0031 151.8989 -0.870 0.341 -0.355 19 112 65
-43.3459 -84.6897 148.0660 -0.862 0.377 -0.338 205 205 213
-43.7283 -84.5169 149.0979 -0.863 0.368 -0.346 202 202 210
-53.8220 -84.4803 162.8222 -0.876 -0.140 -0.461 191 189 192
-12.8707 -59.3294 171.6871 -0.617 -0.734 -0.284 231 225 225
13.3595 -16.1755 167.3735 -0.172 -0.569 -0.804 208 200 179
16.7221 -16.0044 165.6151 -0.426 0.752 -0.504 198 188 163
13.2604 -15.8627 167.0341 -0.147 -0.565 -0.812 206 198 175
13.7242 -15.5497 168.0059 -0.207 -0.531 -0.821 207 196 174
76.9129 1.8311 183.6191 0.758 -0.168 -0.630 182 170 144
9.8395 -12.3417 171.8764 0.245 0.850 -0.466 210 202 181
10.3094 -11.9397 173.1286 -0.268 0.832 -0.486 210 199 179
9.2238 -11.9200 170.6587 0.963 0.076 -0.257 209 198 178
0.8485 6.2778 184.6767 0.942 -0.306 -0.138 196 184 170
