ply
format ascii 1.0
element vertex 35
property float x
property float y
property float z
property float nx
property float ny
property float nz
property uchar diffuse_red
property uchar diffuse_green
property uchar diffuse_blue
end_header
-2.8692 -47.0754 179.1691 -0.453 0.678 -0.579 194 182 158
43.5209 -43.6191 205.0517 0.557 -0.740 -0.377 181 170 142
60.4055 -41.1608 207.7312 -0.720 0.320 -0.616 184 174 149
68.6624 -39.9630 204.6158 0.743 0.567 -0.356 196 185 165
69.4709 -39.4942 205.7496 0.729 0.566 -0.386 195 184 164
-8.1990 -43.5967 190.0764 0.607 0.611 -0.507 197 185 161
-7.9222 -42.7428 181.2011 0.937 -0.262 -0.233 195 183 159
61.2471 -38.4394 200.7551 -0.411 0.388 -0.825 179 168 140
36.2283 -16.8492 181.0618 0.908 -0.148 -0.391 113 104 97
66.4126 -15.6411 178.7983 0.217 0.806 -0.550 86 76 67
36.3823 -16.5154 179.9736 0.888 -0.304 -0.346 108 99 92
37.0604 -16.3662 181.2649 0.421 -0.875 -0.240 105 96 89
36.2924 -16.1273 179.6413 0.459 -0.857 -0.234 104 95 88
36.7190 -16.0965 179.7616 0.439 -0.866 -0.239 99 90 83
38.6136 -16.1831 169.4355 -0.488 -0.242 -0.839 84 74 73
40.5286 -10.6909 200.3575 0.369 -0.929 -0.008 104 95 88
39.0341 -11.3023 191.3504 0.377 -0.926 -0.006 101 92 85
40.5795 -10.6487 196.5413 0.377 -0.926 -0.006 103 94 89
32.1169 -14.0816 165.9512 0.307 -0.951 -0.031 123 110 102
34.4856 -13.5012 170.1019 0.325 -0.945 -0.024 106 97 90
31.6391 -14.1860 161.9218 0.271 -0.962 -0.039 123 113 104
41.0640 -9.4139 198.9900 0.132 -0.991 -0.028 113 104 97
41.7299 -9.2654 200.0111 0.137 -0.990 -0.028 110 101 94
40.4253 -9.5602 194.1077 0.155 -0.988 -0.027 113 103 94
45.0412 -8.5437 200.9489 0.233 -0.972 -0.033 95 85 76
38.6371 -10.1771 185.9719 0.157 -0.987 -0.026 112 102 93
39.4449 -9.9236 187.7636 0.155 -0.988 -0.025 110 100 91
39.9962 -9.8271 188.3634 0.164 -0.986 -0.025 108 98 89
44.5213 -8.8133 195.0911 0.392 -0.919 -0.028 92 81 75
43.5988 -8.4101 191.3729 0.507 -0.862 -0.030 98 85 77
43.4275 -8.2809 188.9685 0.497 -0.867 -0.033 96 83 75
54.7768 -12.7003 148.9214 0.986 -0.092 -0.142 58 44 41
39.9744 -6.9288 175.1470 -0.339 0.717 -0.609 100 81 74
46.0526 -11.0914 126.4594 0.958 -0.250 -0.143 47 33 33
43.3970 12.6989 169.6863 0.419 0.826 -0.377 61 40 37
