ply
format ascii 1.0
element vertex 12
property float x
property float y
property float z
property float nx
property float ny
property float nz
property uchar diffuse_red
property uchar diffuse_green
property uchar diffuse_blue
end_header
56.0303 53.3395 258.6320 -0.580 0.809 -0.099 25 87 64
54.1044 50.3114 293.4572 -0.366 0.915 -0.169 35 106 88
60.2388 50.0269 313.5160 -0.683 0.725 -0.090 173 198 203
49.9960 44.9539 355.7461 -0.727 0.679 -0.104 30 133 106
61.8223 52.3730 323.6498 -0.805 0.578 -0.134 197 212 215
62.6538 53.5181 325.1399 -0.785 0.605 -0.134 199 214 221
64.1726 55.4676 321.5851 -0.809 0.571 -0.140 197 212 217
10.9156 66.2774 354.4240 -0.451 0.887 -0.099 146 138 115
-38.3958 116.8207 302.1685 -0.383 0.874 -0.298 36 123 81
52.1192 128.5320 305.3745 -0.485 -0.449 -0.750 32 86 54
52.9216 128.3679 304.9189 -0.489 -0.446 -0.750 36 85 55
-19.0745 151.0008 364.2741 -0.232 0.916 -0.326 82 86 71
