ply
format ascii 1.0
element vertex 26
property float x
property float y
property float z
property float nx
property float ny
property float nz
property uchar diffuse_red
property uchar diffuse_green
property uchar diffuse_blue
end_header
0.9921 51.1060 283.3816 -0.726 -0.562 -0.395 147 131 116
4.0799 51.8776 275.9854 -0.747 -0.520 -0.415 149 136 119
30.5930 61.3211 169.5691 -0.805 -0.438 -0.400 188 181 152
51.7212 51.3365 308.6031 -0.312 0.940 -0.139 16 101 62
11.9391 66.8612 356.5067 -0.494 0.857 -0.146 186 178 157
268.9507 25.9052 313.1068 0.005 -0.980 -0.200 205 199 183
24.5912 66.9583 317.1230 -0.638 0.743 -0.200 54 44 32
22.1773 68.0285 329.3869 -0.635 0.747 -0.197 58 46 34
26.5304 67.2785 335.2873 0.639 0.721 -0.269 58 44 35
25.9153 68.1768 339.2026 0.289 0.608 -0.740 55 41 32
15.4720 71.5147 363.8394 -0.698 0.680 -0.225 54 42 28
19.1131 71.7972 354.9768 -0.837 0.473 -0.277 58 46 34
10.8257 75.1080 388.5993 -0.864 0.415 -0.286 45 33 21
-4.8452 84.5155 361.4910 -0.588 -0.579 -0.565 185 180 150
-3.8661 85.2427 361.5445 0.124 -0.909 -0.397 181 176 146
-69.2594 98.3019 383.7107 0.597 -0.751 -0.283 39 103 66
-70.9121 99.5816 385.8368 0.550 -0.782 -0.294 28 111 67
-59.3359 99.4566 361.1648 0.610 -0.749 -0.259 35 107 67
-57.7885 108.6881 384.6097 -0.433 -0.873 -0.222 76 58 48
-47.4602 105.7002 364.5192 -0.473 -0.837 -0.277 84 68 53
-46.9018 106.2689 361.1434 -0.558 -0.771 -0.307 83 66 56
-61.2051 108.3338 345.4944 0.676 0.515 -0.527 39 124 82
-17.0684 104.0793 302.2676 -0.513 -0.822 -0.248 196 181 160
-62.5507 121.5211 356.5928 -0.285 -0.931 -0.230 37 124 82
-57.6541 120.6145 347.3958 -0.388 -0.897 -0.211 35 124 80
-49.1899 119.8247 330.2398 -0.287 -0.933 -0.216 36 123 80
