ply
format ascii 1.0
element vertex 12
property float x
property float y
property float z
property float nx
property float ny
property float nz
property uchar diffuse_red
property uchar diffuse_green
property uchar diffuse_blue
end_header
-21.4577 160.8646 273.1415 -0.773 0.502 -0.389 84 75 58
-20.7856 159.8288 279.6412 0.103 0.879 -0.465 84 76 57
23.8241 139.8092 334.0959 0.531 0.781 -0.329 119 92 63
24.0561 140.5304 334.2356 0.606 0.721 -0.338 119 94 64
3.0677 163.8895 251.8521 0.453 0.662 -0.596 144 124 99
25.5813 139.9410 338.9318 0.647 0.676 -0.352 121 95 68
0.2337 166.5464 245.5822 0.288 0.783 -0.551 123 99 73
26.3202 140.1685 340.8434 0.635 0.671 -0.382 120 96 68
6.7280 162.6248 268.1163 -0.130 0.899 -0.419 116 100 74
32.2557 145.0241 346.8469 0.547 0.670 -0.502 224 233 214
27.3443 161.2548 358.6665 -0.068 0.422 -0.904 22 84 69
-0.9060 193.5573 333.5175 0.854 -0.417 -0.313 75 115 104
