ply
format ascii 1.0
element vertex 17
property float x
property float y
property float z
property float nx
property float ny
property float nz
property uchar diffuse_red
property uchar diffuse_green
property uchar diffuse_blue
end_header
61.6565 -39.0949 208.5806 0.616 0.622 -0.483 187 175 149
62.2382 -39.1345 209.0163 0.616 0.622 -0.483 188 176 150
79.7509 -29.0463 206.4230 -0.850 -0.248 -0.464 189 175 148
81.0139 -29.1084 207.4306 -0.652 -0.508 -0.563 192 180 154
31.6096 -13.1431 142.5056 0.664 0.647 -0.374 108 98 89
38.7962 -5.9699 170.7310 0.561 -0.819 -0.122 96 83 77
36.4131 -2.8811 170.6987 -0.793 -0.512 -0.329 102 84 74
37.2883 -2.0694 167.9013 -0.831 -0.316 -0.458 99 81 71
41.4353 -1.4062 177.6754 -0.098 0.601 -0.793 99 80 73
41.8311 -0.9749 177.7316 0.207 0.611 -0.764 98 78 71
74.7342 12.5453 200.3820 0.699 0.044 -0.714 36 17 19
74.2440 12.8890 199.1010 0.457 -0.686 -0.566 39 19 21
-16.4352 37.0132 157.5142 0.237 -0.966 -0.101 34 18 19
22.4999 50.1408 201.1156 -0.076 0.070 -0.995 56 30 29
-16.2047 41.8481 166.3084 0.543 -0.823 -0.164 49 33 34
-16.7649 43.7495 167.1323 0.189 -0.958 -0.215 38 19 23
-13.6124 39.5890 145.4215 -0.798 -0.458 -0.391 55 32 38
