ply
format ascii 1.0
element vertex 9
property float x
property float y
property float z
property float nx
property float ny
property float nz
property uchar diffuse_red
property uchar diffuse_green
property uchar diffuse_blue
end_header
-33.6982 38.2991 375.4097 -0.832 -0.421 -0.361 59 45 34
64.2166 38.7914 172.3817 -0.034 -0.992 -0.124 24 80 55
20.7456 72.4504 356.7288 -0.904 -0.331 -0.270 81 71 61
31.3017 70.3244 285.8718 -0.731 -0.652 -0.200 55 46 31
-17.3069 87.4482 341.8204 0.712 -0.602 -0.362 117 111 87
-17.6387 88.2175 346.0121 0.715 -0.584 -0.384 120 114 90
32.7321 69.4160 277.6866 -0.741 -0.641 -0.201 60 51 36
-17.5048 88.5134 342.9516 0.783 -0.476 -0.400 121 115 91
-17.4022 88.9593 345.5823 0.715 -0.584 -0.384 137 131 107
