ply
format ascii 1.0
element vertex 13
property float x
property float y
property float z
property float nx
property float ny
property float nz
property uchar diffuse_red
property uchar diffuse_green
property uchar diffuse_blue
end_header
48.1916 57.5012 333.4740 0.280 0.249 -0.927 19 80 49
60.2308 58.1748 374.9359 -0.864 -0.384 -0.325 212 215 234
44.4190 62.9069 382.4212 -0.471 -0.830 -0.299 18 81 52
63.9899 63.4603 347.9754 -0.478 -0.829 -0.289 204 209 228
306.8097 34.7424 372.4317 0.311 -0.864 -0.397 206 198 187
278.1497 48.4899 317.8716 -0.316 -0.941 -0.123 200 194 180
260.4265 54.8767 286.0855 -0.404 -0.909 -0.104 198 194 182
264.5106 53.8231 292.3096 -0.323 -0.939 -0.122 202 196 182
-71.5607 123.2401 373.5378 -0.849 -0.159 -0.504 34 125 81
-40.1041 131.2174 333.4698 0.180 -0.843 -0.508 29 118 70
54.1464 155.3203 294.6336 -0.855 0.202 -0.478 200 203 208
55.3137 154.6663 291.9575 -0.846 0.270 -0.459 193 196 201
45.1187 165.4992 326.7220 -0.540 0.786 -0.302 192 195 202
