ply
format ascii 1.0
element vertex 19
property float x
property float y
property float z
property float nx
property float ny
property float nz
property uchar diffuse_red
property uchar diffuse_green
property uchar diffuse_blue
end_header
199.9791 -25.2828 360.4904 0.936 0.188 -0.298 165 148 122
15.0291 67.8176 351.7237 -0.680 0.701 -0.212 107 98 83
13.5671 71.9923 369.1308 -0.793 0.554 -0.254 59 49 37
12.2926 73.8231 380.4135 -0.790 0.555 -0.261 43 33 23
10.7392 74.8991 388.2922 -0.800 0.537 -0.267 44 31 22
294.2585 30.1906 371.3247 0.707 0.680 -0.197 227 223 224
14.2438 77.2198 382.5734 -0.776 0.575 -0.259 73 59 50
-68.5412 113.6871 388.9445 0.070 0.532 -0.844 41 106 72
-69.9350 116.3478 366.6845 -0.684 0.612 -0.397 38 120 80
-68.6577 117.7613 392.8795 -0.508 -0.827 -0.241 42 103 70
-66.5702 117.2456 390.0836 -0.533 -0.805 -0.259 45 91 63
-79.0173 122.9769 388.2384 -0.363 -0.888 -0.283 42 127 88
-70.2445 121.9846 369.2642 -0.517 -0.803 -0.296 47 129 93
-71.6801 124.3436 373.1182 -0.269 -0.918 -0.291 53 130 98
-68.8000 123.9438 363.1121 -0.619 -0.709 -0.339 61 119 105
-68.9710 125.1699 356.5931 -0.559 -0.780 -0.283 173 188 193
-64.4102 123.8600 350.2725 -0.578 -0.762 -0.292 52 83 85
-64.3309 124.3846 346.7730 -0.571 -0.769 -0.286 185 199 202
-57.0035 122.1990 336.0027 -0.594 -0.748 -0.296 38 79 75
