ply
format ascii 1.0
element vertex 10
property float x
property float y
property float z
property float nx
property float ny
property float nz
property uchar diffuse_red
property uchar diffuse_green
property uchar diffuse_blue
end_header
70.0618 -3.9895 187.5446 0.640 -0.443 -0.628 195 189 167
18.2208 -11.5112 182.4003 -0.347 0.674 -0.652 194 182 156
14.5885 -16.9848 146.5865 -0.387 -0.796 -0.466 179 162 136
9.9157 -6.7910 183.7273 0.813 0.564 -0.144 195 185 160
8.8762 -7.0730 181.8315 0.857 0.495 -0.140 198 188 163
9.3929 -6.4599 183.6298 0.857 0.495 -0.140 195 185 160
11.2301 -6.2162 170.3154 0.344 -0.120 -0.931 174 161 129
-0.2169 -1.9694 180.4036 0.317 -0.935 -0.157 216 212 203
0.2111 -1.9607 180.2019 0.326 -0.932 -0.159 214 207 199
0.6481 0.0784 186.1627 0.548 -0.828 -0.116 209 203 191
