ply
format ascii 1.0
element vertex 9
property float x
property float y
property float z
property float nx
property float ny
property float nz
property uchar diffuse_red
property uchar diffuse_green
property uchar diffuse_blue
end_header
-43.0771 -83.1422 141.7655 -0.859 0.312 -0.406 22 86 62
-41.2454 -84.8175 150.4314 -0.754 -0.441 -0.487 50 99 113
12.6984 -5.4977 184.3208 -0.161 -0.279 -0.947 203 191 167
13.1844 -6.9437 174.4150 -0.464 -0.607 -0.645 193 181 157
13.5477 -6.9764 173.8292 -0.354 -0.680 -0.642 191 179 155
13.3308 -6.0879 176.9907 -0.474 -0.547 -0.690 191 179 155
13.7204 -8.3988 147.7938 -0.200 0.526 -0.827 175 160 129
-1.1167 -4.0032 157.3458 -0.191 0.889 -0.416 223 216 210
2.3120 4.2582 179.9713 0.142 -0.911 -0.387 194 182 160
