ply
format ascii 1.0
element vertex 19
property float x
property float y
property float z
property float nx
property float ny
property float nz
property uchar diffuse_red
property uchar diffuse_green
property uchar diffuse_blue
end_header
84.2152 -180.7016 391.9191 -0.766 0.525 -0.370 187 80 88
93.4560 -181.0007 404.6544 0.067 0.982 -0.176 224 176 162
-171.2907 -150.1466 401.4819 -0.891 0.233 -0.390 162 75 83
-171.8059 -147.7210 400.2522 -0.918 0.275 -0.284 161 76 83
-203.1366 -99.2883 397.7971 -0.439 0.829 -0.347 182 75 91
-323.8073 -65.1504 373.0939 -0.550 -0.612 -0.568 214 127 136
-96.5183 62.2524 402.5910 -0.795 0.523 -0.307 223 213 201
-95.4371 63.0808 402.4876 -0.822 0.489 -0.291 224 215 200
-94.2529 63.7292 397.5601 -0.858 0.411 -0.308 184 172 158
-93.1995 63.7769 394.2487 -0.588 0.713 -0.383 134 122 106
-92.2693 62.9524 391.2754 -0.144 0.787 -0.599 135 122 105
-91.3237 62.9256 391.6304 -0.114 0.757 -0.643 150 135 112
-93.0539 66.7530 402.6288 -0.138 0.830 -0.541 128 117 99
-92.0860 66.5685 402.3416 -0.147 0.831 -0.537 135 122 105
-91.2298 63.5055 390.1371 0.539 -0.778 -0.322 149 133 110
-94.8821 65.8297 393.9763 -0.664 -0.714 -0.225 199 191 178
-92.9933 65.1151 391.9753 -0.674 -0.704 -0.222 128 115 98
-92.0743 64.1397 388.4405 0.513 -0.811 -0.282 138 123 102
-93.7527 64.4077 381.1485 -0.801 -0.552 -0.229 142 133 116
