ply
format ascii 1.0
element vertex 37
property float x
property float y
property float z
property float nx
property float ny
property float nz
property uchar diffuse_red
property uchar diffuse_green
property uchar diffuse_blue
end_header
55.8764 -44.0597 213.4406 -0.308 -0.864 -0.398 189 177 151
72.0260 -31.6696 204.4923 -0.726 -0.588 -0.357 170 153 125
72.4723 -31.6429 204.5216 -0.506 -0.685 -0.524 171 154 126
71.8126 -31.1873 203.9537 -0.726 -0.588 -0.357 168 151 123
82.1022 -28.1975 215.0161 0.745 -0.191 -0.639 170 156 127
74.6592 -27.0566 197.1847 0.456 -0.579 -0.676 165 150 121
-113.6318 -34.8948 176.9113 -0.551 0.741 -0.383 237 231 235
-17.0172 -28.1004 186.1730 -0.953 0.117 -0.279 190 174 159
-15.2674 -26.6338 186.1450 0.112 -0.966 -0.231 173 157 134
46.2744 -22.6781 155.5933 0.896 -0.049 -0.442 147 135 109
46.5251 -22.6634 155.3175 0.888 -0.018 -0.459 147 136 108
-17.9571 -23.1681 183.4235 -0.135 -0.932 -0.336 182 168 155
52.5235 -16.9993 154.8981 0.592 0.765 -0.253 78 67 63
53.3018 -16.3737 151.6720 0.418 0.752 -0.510 77 66 62
40.7656 -15.0756 189.9029 0.595 0.471 -0.651 104 95 90
53.2574 -16.0676 150.7088 0.561 0.785 -0.263 77 63 60
54.5496 -15.9331 152.4545 0.856 0.322 -0.405 77 63 60
55.2055 -15.8649 153.3396 0.887 0.021 -0.461 75 64 60
55.7426 -15.8157 153.9000 0.889 0.018 -0.457 76 65 61
55.7766 -15.4939 153.1609 0.682 0.372 -0.630 75 64 60
55.6415 -15.2037 151.9862 0.187 0.674 -0.714 75 61 58
55.8911 -15.2004 151.7955 0.275 0.677 -0.683 77 63 60
62.8236 -11.5324 166.4779 0.988 -0.039 -0.147 68 57 53
62.2431 -11.2726 165.0283 0.988 -0.040 -0.149 68 57 53
42.7058 -7.6943 197.8401 0.324 -0.944 -0.059 108 98 89
59.3557 -9.7056 157.8433 0.985 -0.079 -0.153 60 49 45
58.9040 -9.4561 156.7199 0.985 -0.075 -0.155 59 48 44
37.3117 -5.7040 169.8862 0.967 0.113 -0.230 102 82 75
37.8900 -5.5927 170.7368 0.964 0.136 -0.229 98 79 72
37.1623 -1.0576 150.3567 -0.410 0.140 -0.901 93 70 62
59.8578 35.2741 194.2868 0.849 -0.528 -0.009 80 53 44
58.1518 34.0770 189.0008 0.848 -0.529 -0.010 82 58 48
34.4992 16.9129 128.3791 -0.548 -0.814 -0.193 37 27 18
49.1201 28.7400 162.2042 0.903 -0.428 -0.026 93 70 64
48.4800 29.2807 158.2305 0.777 -0.629 -0.024 81 56 52
-20.8449 28.3616 153.9434 -0.184 -0.946 -0.266 74 43 48
30.5563 13.7516 110.6958 -0.803 -0.553 -0.222 61 48 39
