ply
format ascii 1.0
element vertex 17
property float x
property float y
property float z
property float nx
property float ny
property float nz
property uchar diffuse_red
property uchar diffuse_green
property uchar diffuse_blue
end_header
50.4874 -15.0439 149.5493 -0.541 0.495 -0.680 138 126 112
57.8599 -14.4638 158.2111 0.267 -0.789 -0.554 141 129 105
58.7358 -14.0885 158.7738 -0.002 0.593 -0.805 143 131 109
56.1182 -13.6402 154.4799 0.117 0.758 -0.642 131 123 102
57.1015 -12.4243 151.9838 0.721 0.505 -0.475 133 124 107
54.9454 -12.0552 148.8613 0.312 0.632 -0.709 116 108 97
56.6555 -8.5908 149.4236 0.451 0.509 -0.733 68 55 49
43.8049 -8.5724 114.4001 0.557 -0.780 -0.284 71 60 56
34.1855 -8.3667 168.1940 0.457 -0.884 -0.104 117 106 100
35.5284 -8.2282 157.8339 0.208 -0.970 -0.127 89 80 73
33.2192 -7.5560 145.2462 0.261 -0.954 -0.146 89 78 72
64.5126 4.5775 205.9660 0.913 -0.390 -0.122 66 45 42
64.5669 16.9162 168.7400 0.691 -0.706 -0.154 53 33 35
-12.4179 16.8109 160.2390 -0.210 -0.907 -0.365 51 30 29
56.5852 16.2272 148.4392 0.837 -0.526 -0.154 41 27 27
-14.5931 43.3875 148.6041 0.276 -0.913 -0.302 36 17 21
-13.4476 43.8145 147.7440 0.435 -0.806 -0.402 54 34 33
