ply
format ascii 1.0
element vertex 33
property float x
property float y
property float z
property float nx
property float ny
property float nz
property uchar diffuse_red
property uchar diffuse_green
property uchar diffuse_blue
end_header
-36.9757 38.8439 384.8954 -0.792 -0.488 -0.366 62 48 37
293.6895 16.1512 356.8900 0.693 -0.541 -0.477 205 198 190
48.3227 57.3483 345.3506 -0.753 0.504 -0.424 18 77 49
48.6260 58.0722 343.5015 -0.756 0.586 -0.291 18 77 49
48.6006 58.9969 345.0882 -0.740 0.617 -0.269 20 76 49
48.6010 59.9129 346.4159 -0.796 0.521 -0.307 19 75 48
26.5341 66.6784 332.5992 -0.322 0.924 -0.204 62 43 36
-4.3610 75.4507 356.4317 0.290 -0.805 -0.518 184 178 152
20.0460 72.8474 359.4248 -0.488 0.840 -0.238 74 60 49
26.3798 70.2582 336.5157 0.317 -0.895 -0.313 79 62 54
28.3663 70.9231 350.0787 0.365 0.413 -0.835 67 69 47
18.4234 75.8793 361.0925 -0.904 -0.327 -0.277 65 52 43
26.3162 71.8321 324.7688 -0.918 -0.257 -0.303 76 63 54
281.5986 37.0861 341.3909 0.956 0.108 -0.274 235 231 232
28.9088 73.9273 316.6940 0.207 -0.847 -0.489 76 62 51
19.0398 79.9622 331.1856 -0.505 0.380 -0.775 185 177 156
-18.3072 88.4581 343.1122 0.906 0.356 -0.230 126 120 98
264.6061 44.2852 306.4284 0.448 -0.851 -0.274 92 90 93
-65.8570 109.7175 387.4551 -0.473 0.823 -0.316 33 69 41
-50.2186 105.3857 371.9719 0.164 0.724 -0.669 80 68 52
-55.9766 108.3339 380.9427 -0.475 0.827 -0.300 66 58 45
-15.6165 99.2986 345.1548 -0.914 0.082 -0.396 159 153 127
-25.5206 93.1743 260.3985 -0.510 -0.820 -0.260 30 122 81
-59.1765 117.5695 383.1423 -0.723 -0.606 -0.331 66 63 48
-36.3294 109.6825 322.6678 -0.577 -0.789 -0.211 50 69 49
-28.7115 106.5175 306.0626 -0.553 -0.808 -0.202 64 62 49
-61.7732 121.3687 354.1582 -0.882 -0.232 -0.410 43 132 88
-54.3697 117.7577 339.8224 -0.837 0.015 -0.547 26 118 69
-22.4374 103.7992 287.2497 -0.602 -0.765 -0.231 46 65 45
-78.1622 131.9465 395.1451 -0.531 -0.825 -0.192 41 130 86
-49.8183 116.2932 330.6834 -0.618 -0.549 -0.563 24 116 67
-75.5771 130.6238 384.5262 -0.540 -0.821 -0.188 54 129 99
-74.9107 130.6349 385.1441 -0.538 -0.819 -0.199 50 135 96
