ply
format ascii 1.0
element vertex 18
property float x
property float y
property float z
property float nx
property float ny
property float nz
property uchar diffuse_red
property uchar diffuse_green
property uchar diffuse_blue
end_header
61.2980 -7.7247 154.7412 0.815 0.557 -0.158 137 125 103
40.6649 -10.0459 192.9879 0.234 -0.455 -0.859 78 73 67
43.4070 -9.6704 206.3722 -0.439 -0.859 -0.264 83 76 68
43.6898 -9.5869 205.5202 -0.373 -0.890 -0.264 77 70 62
44.0407 -9.5284 205.0095 -0.373 -0.883 -0.286 68 61 55
44.2187 -9.4124 203.7026 -0.436 -0.844 -0.311 68 61 55
38.3730 1.1658 165.1018 0.373 0.576 -0.727 94 74 67
38.6213 1.5751 164.6229 0.266 0.328 -0.906 90 70 63
76.4220 13.8877 203.1170 -0.006 -0.880 -0.474 49 29 31
33.5706 16.7468 102.1329 -0.016 -0.982 -0.186 56 40 41
27.2138 42.5016 193.2270 0.957 -0.288 -0.042 62 34 31
26.9601 45.6768 195.1530 0.450 0.867 -0.216 47 23 21
22.9081 49.7140 192.3529 0.260 -0.120 -0.958 46 22 20
-17.2933 48.5586 183.3208 -0.167 0.769 -0.617 46 23 29
-17.9931 49.5604 185.6002 -0.258 0.814 -0.521 41 20 25
-13.6808 41.8986 145.9452 -0.803 -0.512 -0.305 62 37 43
-15.8726 44.8728 156.2071 -0.855 -0.453 -0.254 36 17 21
-12.3063 42.3546 138.1918 0.174 -0.852 -0.494 57 39 39
