ply
format ascii 1.0
element vertex 12
property float x
property float y
property float z
property float nx
property float ny
property float nz
property uchar diffuse_red
property uchar diffuse_green
property uchar diffuse_blue
end_header
-60.3192 -97.4133 135.4713 -0.713 0.680 -0.172 79 65 52
-49.5522 -85.3788 158.8626 -0.861 0.286 -0.420 204 210 210
69.1448 -0.1427 193.7150 0.711 0.347 -0.611 191 177 151
17.4032 -8.2568 190.7791 0.689 0.358 -0.630 192 182 157
17.8186 -8.2684 190.4137 0.698 0.399 -0.595 192 182 157
68.6254 1.5556 195.4273 0.667 0.093 -0.739 182 168 141
67.7926 0.5860 191.7682 0.832 -0.133 -0.539 182 168 141
12.0464 -5.4188 176.5921 -0.810 0.193 -0.553 187 172 143
12.4138 -5.5560 175.8430 -0.811 0.133 -0.569 187 172 143
11.7089 -4.3402 179.2025 -0.843 0.292 -0.452 186 172 143
11.7439 -3.3755 181.1131 -0.599 0.570 -0.563 184 170 141
-0.6920 -4.5786 174.7693 0.516 -0.643 -0.566 228 220 217
